<svg width="45" height="47" viewBox="0 0 45 47" fill="none" xmlns="http://www.w3.org/2000/svg">
<path fill-rule="evenodd" clip-rule="evenodd" d="M7.90029 4.57651C8.68647 1.64244 11.7023 -0.0987592 14.6364 0.687421L40.7164 7.67553C43.6504 8.46172 45.3916 11.4776 44.6055 14.4116L37.0997 42.4235C36.3135 45.3575 33.2977 47.0987 30.3636 46.3126L4.28362 39.3245C1.34956 38.5383 -0.391646 35.5224 0.394534 32.5884L7.90029 4.57651ZM13.8599 3.5852C12.5263 3.22784 11.1554 4.0193 10.7981 5.35297L3.29231 33.3648C2.93496 34.6985 3.72641 36.0693 5.06008 36.4267L31.1401 43.4148C32.4737 43.7721 33.8446 42.9807 34.2019 41.647L41.7077 13.6352C42.065 12.3015 41.2736 10.9307 39.9399 10.5733L13.8599 3.5852Z" fill="#007FFF"/>
<path d="M13.7212 11.8302C13.9356 11.03 14.7581 10.5552 15.5583 10.7696L35.8428 16.2048C36.643 16.4192 37.1179 17.2417 36.9034 18.0419C36.689 18.8421 35.8665 19.317 35.0663 19.1026L14.7819 13.6674C13.9817 13.4529 13.5068 12.6304 13.7212 11.8302Z" fill="#007FFF"/>
<path d="M11.6507 19.5576C11.8651 18.7575 12.6876 18.2826 13.4878 18.497L33.7722 23.9322C34.5724 24.1466 35.0473 24.9691 34.8329 25.7693C34.6185 26.5695 33.796 27.0444 32.9958 26.83L12.7113 21.3948C11.9111 21.1804 11.4363 20.3578 11.6507 19.5576Z" fill="#007FFF"/>
<path d="M9.58012 27.2851C9.79453 26.4849 10.617 26.01 11.4172 26.2244L23.0083 29.3302C23.8085 29.5446 24.2834 30.3671 24.069 31.1673C23.8546 31.9675 23.0321 32.4424 22.2319 32.228L10.6408 29.1222C9.84058 28.9078 9.36571 28.0853 9.58012 27.2851Z" fill="#007FFF"/>
</svg>
