<svg width="40" height="40" viewBox="0 0 40 40" fill="none" xmlns="http://www.w3.org/2000/svg">
<path fill-rule="evenodd" clip-rule="evenodd" d="M10 3.5C9.33696 3.5 8.70107 3.76339 8.23223 4.23223C7.76339 4.70107 7.5 5.33696 7.5 6V36.5H32.5V6C32.5 5.33696 32.2366 4.70107 31.7678 4.23223C31.2989 3.76339 30.663 3.5 30 3.5H10ZM35.5 36.5V6C35.5 4.54131 34.9205 3.14236 33.8891 2.11091C32.8576 1.07946 31.4587 0.5 30 0.5H10C8.54131 0.5 7.14236 1.07946 6.11091 2.11091C5.07946 3.14236 4.5 4.54131 4.5 6V36.5H2C1.17157 36.5 0.5 37.1716 0.5 38C0.5 38.8284 1.17157 39.5 2 39.5H38C38.8284 39.5 39.5 38.8284 39.5 38C39.5 37.1716 38.8284 36.5 38 36.5H35.5ZM12.5 12C12.5 11.1716 13.1716 10.5 14 10.5H16C16.8284 10.5 17.5 11.1716 17.5 12C17.5 12.8284 16.8284 13.5 16 13.5H14C13.1716 13.5 12.5 12.8284 12.5 12ZM22.5 12C22.5 11.1716 23.1716 10.5 24 10.5H26C26.8284 10.5 27.5 11.1716 27.5 12C27.5 12.8284 26.8284 13.5 26 13.5H24C23.1716 13.5 22.5 12.8284 22.5 12ZM12.5 20C12.5 19.1716 13.1716 18.5 14 18.5H16C16.8284 18.5 17.5 19.1716 17.5 20C17.5 20.8284 16.8284 21.5 16 21.5H14C13.1716 21.5 12.5 20.8284 12.5 20ZM22.5 20C22.5 19.1716 23.1716 18.5 24 18.5H26C26.8284 18.5 27.5 19.1716 27.5 20C27.5 20.8284 26.8284 21.5 26 21.5H24C23.1716 21.5 22.5 20.8284 22.5 20ZM12.5 28C12.5 27.1716 13.1716 26.5 14 26.5H16C16.8284 26.5 17.5 27.1716 17.5 28C17.5 28.8284 16.8284 29.5 16 29.5H14C13.1716 29.5 12.5 28.8284 12.5 28ZM22.5 28C22.5 27.1716 23.1716 26.5 24 26.5H26C26.8284 26.5 27.5 27.1716 27.5 28C27.5 28.8284 26.8284 29.5 26 29.5H24C23.1716 29.5 22.5 28.8284 22.5 28Z" fill="#0080FF"/>
</svg>
