<svg width="36" height="42" viewBox="0 0 36 42" fill="none" xmlns="http://www.w3.org/2000/svg">
<path fill-rule="evenodd" clip-rule="evenodd" d="M18 0.5C15.4718 0.5 13.0526 1.52251 11.2731 3.33376C9.49456 5.1441 8.5 7.5939 8.5 10.1429C8.5 12.6918 9.49456 15.1416 11.2731 16.952C13.0526 18.7632 15.4718 19.7857 18 19.7857C20.5282 19.7857 22.9474 18.7632 24.7269 16.952C26.5054 15.1416 27.5 12.6918 27.5 10.1429C27.5 7.5939 26.5054 5.1441 24.7269 3.33376C22.9474 1.52251 20.5282 0.5 18 0.5ZM13.4131 5.43622C14.6343 4.1933 16.2847 3.5 18 3.5C19.7153 3.5 21.3657 4.1933 22.5869 5.43622C23.8088 6.68004 24.5 8.37258 24.5 10.1429C24.5 11.9131 23.8088 13.6057 22.5869 14.8495C21.3657 16.0924 19.7153 16.7857 18 16.7857C16.2847 16.7857 14.6343 16.0924 13.4131 14.8495C12.1912 13.6057 11.5 11.9131 11.5 10.1429C11.5 8.37258 12.1912 6.68004 13.4131 5.43622Z" fill="#0080FF"/>
<path d="M13.4293 24.9286C6.45709 24.9286 0.5 29.9987 0.5 36.6071V40C0.5 40.8284 1.17157 41.5 2 41.5C2.82843 41.5 3.5 40.8284 3.5 40V36.6071C3.5 31.973 7.77758 27.9286 13.4293 27.9286H22.5707C28.2224 27.9286 32.5 31.973 32.5 36.6071V40C32.5 40.8284 33.1716 41.5 34 41.5C34.8284 41.5 35.5 40.8284 35.5 40V36.6071C35.5 29.9987 29.5429 24.9286 22.5707 24.9286H13.4293Z" fill="#0080FF"/>
</svg>
