<svg width="41" height="42" viewBox="0 0 41 42" fill="none" xmlns="http://www.w3.org/2000/svg">
<path fill-rule="evenodd" clip-rule="evenodd" d="M0 21.0001C-3.99197e-08 23.6791 0.527661 26.3318 1.55286 28.8068C2.57805 31.2819 4.08071 33.5308 5.97502 35.4251C7.86934 37.3194 10.1182 38.822 12.5933 39.8472C15.0683 40.8724 17.721 41.4001 20.4 41.4001C23.079 41.4001 25.7317 40.8724 28.2067 39.8472C30.6818 38.822 32.9307 37.3194 34.825 35.4251C36.7193 33.5308 38.2219 31.2819 39.2471 28.8068C40.2723 26.3318 40.8 23.6791 40.8 21.0001C40.8 15.5897 38.6507 10.4009 34.825 6.57512C30.9992 2.74938 25.8104 0.600098 20.4 0.600098C14.9896 0.600098 9.80076 2.74938 5.97502 6.57512C2.14928 10.4009 8.06215e-08 15.5897 0 21.0001ZM38.4 21.0001C38.4 25.774 36.5036 30.3524 33.1279 33.728C29.7523 37.1037 25.1739 39.0001 20.4 39.0001C15.6261 39.0001 11.0477 37.1037 7.67208 33.728C4.29642 30.3524 2.4 25.774 2.4 21.0001C2.4 16.2262 4.29642 11.6478 7.67208 8.27218C11.0477 4.89652 15.6261 3.0001 20.4 3.0001C25.1739 3.0001 29.7523 4.89652 33.1279 8.27218C36.5036 11.6478 38.4 16.2262 38.4 21.0001Z" fill="#0080FF"/>
<path fill-rule="evenodd" clip-rule="evenodd" d="M12.0001 21.0002C12.0001 31.5506 15.4609 40.2002 20.4001 40.2002C25.3393 40.2002 28.8001 31.5506 28.8001 21.0002C28.8001 10.4498 25.3393 1.8002 20.4001 1.8002C15.4609 1.8002 12.0001 10.4498 12.0001 21.0002ZM26.4001 21.0002C26.4001 30.3338 23.4121 37.8002 20.4001 37.8002C17.3881 37.8002 14.4001 30.3338 14.4001 21.0002C14.4001 11.6666 17.3881 4.2002 20.4001 4.2002C23.4121 4.2002 26.4001 11.6666 26.4001 21.0002Z" fill="#0080FF"/>
<path d="M5.3641 9.74896L6.9721 7.96816C7.2289 8.19856 7.5025 8.42416 7.7953 8.64256C10.9585 11.0138 15.9505 12.4586 21.3913 12.4586C26.0305 12.4586 30.3601 11.4098 33.5233 9.60256C34.2521 9.1902 34.9407 8.71051 35.5801 8.16976L37.1401 9.99376C36.4249 10.6058 35.6137 11.1698 34.7161 11.6834C31.1713 13.7114 26.4313 14.8586 21.3913 14.8586C15.4633 14.8586 9.9625 13.2674 6.3553 10.5626C6.01254 10.3059 5.68179 10.036 5.3641 9.74896ZM5.3641 32.2802L6.9721 34.0562C7.2289 33.8258 7.5025 33.6002 7.7953 33.3842C10.9585 31.013 15.9505 29.5682 21.3913 29.5682C26.0305 29.5682 30.3601 30.6146 33.5233 32.4242C34.2937 32.8658 34.9825 33.3458 35.5801 33.8546L37.1401 32.0306C36.3867 31.3929 35.5751 30.8272 34.7161 30.341C31.1713 28.3154 26.4313 27.1682 21.3913 27.1682C15.4633 27.1682 9.9625 28.7594 6.3553 31.4618C6.0049 31.7258 5.6737 31.9994 5.3641 32.2802ZM1.2001 22.2002V19.8002H39.6001V22.2002H1.2001Z" fill="#0080FF"/>
</svg>
